# xmcd
#
# Track frame offsets: 
#        150
#        19425
#        39505
#        57140
#        76715
#        89365
#        107195
#        129605
#        143087
#        158430
#
# Disc length: 2252 seconds
#
# Revision: 4
# Processed by: cddbd v1.5.2PL0 Copyright (c) Steve Scherf et al.
# Submitted via: ExactAudioCopy v0.95a4
#
DISCID=7708ca0a
DTITLE=Wynonna Judd - Wynonna
DYEAR=1992
DGENRE=Country
TTITLE0=What It Takes
TTITLE1=She Is His Only Need
TTITLE2=I Saw The Light
TTITLE3=My Strongest Weakness
TTITLE4=When I Reach The Place I'm Goin'
TTITLE5=No One Else On Earth
TTITLE6=It's Never Easy To Say Goodbye
TTITLE7=A Little Bit Of Love (Goes A Long, Long Way)
TTITLE8=All Of That Love From Here
TTITLE9=Live With Jesus
EXTD=Year: 1992\n\nDigitally Recorded at Emerald Studio using the Mits
EXTD=ubishi X-850 32 track digital\n\nWynonna Judd International Fan C
EXTD=lub \nP.O. Box 17325 - Nashville, TN 37217\n(615  758-5224)
EXTT0=
EXTT1=
EXTT2=
EXTT3=
EXTT4=
EXTT5=
EXTT6=
EXTT7=
EXTT8=
EXTT9=
PLAYORDER=
